<?xml version="1.0" encoding="UTF-8"?>
<svg width="27px" height="26px" viewBox="0 0 27 26" version="1.1" xmlns="http://www.w3.org/2000/svg" xmlns:xlink="http://www.w3.org/1999/xlink">
    <!-- Generator: Sketch 46.2 (44496) - http://www.bohemiancoding.com/sketch -->
    <title>logo--circle--white@2x</title>
    <desc>Created with Sketch.</desc>
    <defs></defs>
    <g id="Page-1" stroke="none" stroke-width="1" fill="none" fill-rule="evenodd">
        <g id="logo--circle--white" fill="#FFFFFF">
            <path d="M13.48,26 C6.3,26 0.48,20.18 0.48,13 C0.48,5.82 6.3,0 13.48,0 C20.65,0 26.47,5.82 26.47,13 C26.47,20.18 20.65,26 13.48,26 Z M15.1876886,8.78119078 L13.7066408,11.7375902 L13.7066408,11.7375902 C13.5641486,12.0220264 13.565497,12.3572913 13.7102723,12.6405722 L15.7415094,16.6150795 L15.7415094,16.6150795 C15.9124368,16.9495319 16.2563613,17.16 16.6319603,17.16 L19.5676896,17.16 L19.5676896,17.16 C20.1199744,17.16 20.5676896,16.7122847 20.5676896,16.16 C20.5676896,16.0039577 20.5311725,15.8500808 20.4610592,15.7106773 L16.9751406,8.77977065 L16.9751406,8.77977065 C16.7269865,8.28637628 16.1258427,8.08756972 15.6324483,8.33572378 C15.4401062,8.43246277 15.2841219,8.5886952 15.1876886,8.78119078 Z M11.4823114,8.78119078 L12.9633592,11.7375902 L12.9633592,11.7375902 C13.1058514,12.0220264 13.104503,12.3572913 12.9597277,12.6405722 L10.9284906,16.6150795 L10.9284906,16.6150795 C10.7575632,16.9495319 10.4136387,17.16 10.0380397,17.16 L7.10231037,17.16 L7.10231037,17.16 C6.55002562,17.16 6.10231037,16.7122847 6.10231037,16.16 C6.10231037,16.0039577 6.1388275,15.8500808 6.20894083,15.7106773 L9.69485945,8.77977065 L9.69485945,8.77977065 C9.94301351,8.28637628 10.5441573,8.08756972 11.0375517,8.33572378 C11.2298938,8.43246277 11.3858781,8.5886952 11.4823114,8.78119078 Z" id="Shape"></path>
        </g>
    </g>
</svg>